<svg width="100" height="100" viewBox="0 0 100 100" fill="none" xmlns="http://www.w3.org/2000/svg">
<circle cx="50" cy="50" r="50" fill="#D9D9D9"/>
<path d="M58.226 65.6178C62.1541 65.6178 63.6803 67.4021 64.8407 71.3563L65.0446 72.0816C65.5904 74.0924 65.9202 74.6953 66.5829 74.9738C67.3595 75.3013 67.8752 75.2554 68.6908 74.8269L69.1316 74.5759C69.2905 74.478 69.4614 74.3648 69.6593 74.2332L71.6473 72.8529C73.4944 71.6134 75.1556 70.7931 77.1736 70.279C77.4617 70.2008 77.7621 70.1819 78.0574 70.2234C78.3527 70.2648 78.637 70.3657 78.8937 70.5203C79.1505 70.6749 79.3746 70.8801 79.5529 71.1238C79.7313 71.3676 79.8604 71.6451 79.9328 71.9403C80.0051 72.2355 80.0192 72.5423 79.9743 72.8431C79.9294 73.1439 79.8264 73.4326 79.6712 73.6924C79.516 73.9521 79.3118 74.1778 79.0704 74.3563C78.829 74.5348 78.5552 74.6625 78.265 74.732C77.0503 75.047 75.891 75.553 74.8287 76.2317L73.9352 76.8132L72.4959 77.817C71.9362 78.2182 71.3523 78.5832 70.7478 78.9097C68.8197 79.9196 66.9397 80.091 64.8677 79.2157C62.6338 78.2792 61.7343 76.8316 60.8917 73.9516L60.4239 72.2897C59.8812 70.4871 59.5094 70.2086 58.229 70.2086C57.2995 70.2086 56.34 70.683 55.0236 71.8092L54.4719 72.302L51.7103 74.9799C47.4884 79.0321 43.8872 81 38.7328 81C33.6773 81 29.3055 80.2226 25.6353 78.6465L34.4719 76.1858C35.8122 76.3327 37.2335 76.4092 38.7328 76.4092C42.28 76.4092 44.8257 75.1391 47.9892 72.2377L48.7628 71.5062L50.358 69.9454C51.0656 69.2506 51.5993 68.7518 52.1331 68.2927C54.1841 66.539 56.0461 65.6178 58.229 65.6178H58.226ZM71.0626 24.2088C73.0738 26.2628 74.2036 29.048 74.2036 31.9519C74.2036 34.8559 73.0738 37.6411 71.0626 39.6951L70.1991 40.5826C73.6503 44.8674 73.5274 49.4153 70.316 52.7023L64.313 58.8234C63.8907 59.2536 63.3183 59.495 62.7217 59.4944C62.125 59.4938 61.5531 59.2514 61.1316 58.8203C60.7101 58.3893 60.4736 57.8051 60.4742 57.1961C60.4748 56.5871 60.7123 56.0033 61.1346 55.5731L67.1286 49.4582C68.5829 47.9677 68.7478 46.1222 67.0086 43.8299L41.1736 70.2086C40.3426 71.0567 39.309 71.6686 38.1751 71.9837L22.8377 76.2531C22.4554 76.359 22.0524 76.3599 21.6696 76.2558C21.2868 76.1516 20.9378 75.9461 20.6578 75.66C20.3778 75.3739 20.1769 75.0174 20.0752 74.6266C19.9736 74.2358 19.975 73.8245 20.0791 73.4344L24.259 57.7767C24.5682 56.6204 25.1676 55.5665 25.9981 54.7192L55.8872 24.2088C56.8835 23.1915 58.0664 22.3845 59.3683 21.834C60.6702 21.2834 62.0657 21 63.4749 21C64.8842 21 66.2796 21.2834 67.5815 21.834C68.8834 22.3845 70.0663 23.1915 71.0626 24.2088ZM59.0686 27.453L29.1796 57.9664C28.9031 58.249 28.7036 58.6003 28.6008 58.9856L25.4524 70.7687L36.9966 67.5551C37.3734 67.4488 37.7165 67.2442 37.9921 66.9613L67.8842 36.454C68.4631 35.8632 68.9222 35.1618 69.2355 34.3898C69.5487 33.6179 69.71 32.7905 69.71 31.955C69.71 31.1195 69.5487 30.2921 69.2355 29.5202C68.9222 28.7482 68.4631 28.0468 67.8842 27.456C67.3054 26.8652 66.6182 26.3965 65.8619 26.0768C65.1056 25.7571 64.295 25.5925 63.4764 25.5925C62.6578 25.5925 61.8472 25.7571 61.0909 26.0768C60.3346 26.3965 59.6475 26.8621 59.0686 27.453Z" fill="black"/>
</svg>
