<svg width="100" height="100" viewBox="0 0 100 100" fill="none" xmlns="http://www.w3.org/2000/svg">
<circle cx="50" cy="50" r="50" fill="#D9D9D9"/>
<path d="M63.25 48.5C70.2236 51.6726 75 58.2886 75 67.2727V78H28V67.2727C28 58.2779 32.7911 51.6511 39.75 48.5M69.125 35.0909C69.125 37.204 68.6691 39.2964 67.7834 41.2486C66.8976 43.2009 65.5994 44.9747 63.9628 46.4689C62.3261 47.9631 60.3832 49.1483 58.2448 49.957C56.1064 50.7656 53.8145 51.1818 51.5 51.1818C46.8256 51.1818 42.3426 49.4865 39.0372 46.4689C35.7319 43.4513 33.875 39.3585 33.875 35.0909M69.125 35.0909C69.125 32.9778 68.6691 30.8854 67.7834 28.9332C66.8976 26.9809 65.5994 25.2071 63.9628 23.7129C62.3261 22.2187 60.3832 21.0335 58.2448 20.2248C56.1064 19.4162 53.8145 19 51.5 19C46.8256 19 42.3426 20.6953 39.0372 23.7129C35.7319 26.7305 33.875 30.8233 33.875 35.0909M69.125 35.0909C64.7188 35.0909 60.3125 36.0564 54.4375 29.7273C48.5625 36.0564 41.2188 37.7727 33.875 35.0909M36.8125 51.1818L51.5734 65.2801L66.1875 51.1818M51.5 64.5909V78" stroke="black" stroke-width="4"/>
</svg>
