<svg width="100" height="100" viewBox="0 0 100 100" fill="none" xmlns="http://www.w3.org/2000/svg">
<circle cx="50" cy="50" r="50" fill="#D9D9D9"/>
<g clip-path="url(#clip0_1147_2363)">
<path d="M44 48.5C47.3152 48.5 50.4946 47.183 52.8388 44.8388C55.183 42.4946 56.5 39.3152 56.5 36C56.5 32.6848 55.183 29.5054 52.8388 27.1612C50.4946 24.817 47.3152 23.5 44 23.5C40.6848 23.5 37.5054 24.817 35.1612 27.1612C32.817 29.5054 31.5 32.6848 31.5 36C31.5 39.3152 32.817 42.4946 35.1612 44.8388C37.5054 47.183 40.6848 48.5 44 48.5ZM44 48.5C49.0325 48.5 53.43 50.4 56.5575 53.5575C58.4121 55.4372 59.7993 57.7261 60.6075 60.24M44 48.5C34 48.5 26.5 56 26.5 66V78.5H51.5M54 68.06L64.475 76L81.5 53.5" stroke="black" stroke-width="5"/>
</g>
<defs>
<clipPath id="clip0_1147_2363">
<rect width="60" height="60" fill="white" transform="translate(23 21)"/>
</clipPath>
</defs>
</svg>
