<svg width="20" height="20" viewBox="0 0 20 20" fill="none" xmlns="http://www.w3.org/2000/svg">
<path d="M5.71999 14.4623L7.48099 13.9544L18.084 3.22498C18.1676 3.13928 18.2142 3.02413 18.2136 2.90439C18.213 2.78465 18.1654 2.66993 18.081 2.58502L17.446 1.94306C17.4049 1.9009 17.3559 1.86733 17.3018 1.84432C17.2476 1.82131 17.1894 1.80931 17.1306 1.80903C17.0718 1.80876 17.0135 1.8202 16.9591 1.84269C16.9047 1.86519 16.8554 1.89829 16.814 1.94006L6.23899 12.6414L5.71899 14.4613L5.71999 14.4623ZM18.703 0.671131L19.338 1.31409C20.214 2.20104 20.222 3.63196 19.354 4.50991L8.42799 15.5673L4.66399 16.6512C4.43419 16.7155 4.18825 16.686 3.98016 16.5693C3.77206 16.4525 3.61879 16.2579 3.55399 16.0282C3.50578 15.8631 3.50508 15.6878 3.55199 15.5223L4.64699 11.6825L15.544 0.654132C15.7512 0.445502 15.9979 0.280216 16.2696 0.167913C16.5414 0.0556103 16.8328 -0.00146082 17.1268 2.84112e-05C17.4209 0.00151765 17.7117 0.0615374 17.9823 0.176587C18.2529 0.291637 18.4979 0.460413 18.703 0.671131ZM7.18399 1.82406C7.67999 1.82406 8.08199 2.23104 8.08199 2.73301C8.08278 2.85167 8.06017 2.96933 8.01546 3.07924C7.97074 3.18916 7.9048 3.28919 7.8214 3.37361C7.738 3.45802 7.63878 3.52517 7.52941 3.57122C7.42003 3.61727 7.30266 3.6413 7.18399 3.64196H3.59199C2.6 3.64196 1.796 4.45591 1.796 5.45885V16.3642C1.796 17.3682 2.6 18.1821 3.59199 18.1821H14.368C15.36 18.1821 16.165 17.3682 16.165 16.3642V12.7294C16.165 12.2275 16.567 11.8205 17.063 11.8205C17.559 11.8205 17.961 12.2275 17.961 12.7304V16.3642C17.961 18.3721 16.352 20 14.368 20H3.59199C1.608 20 0 18.3721 0 16.3642V5.45885C0 3.45197 1.608 1.82406 3.59199 1.82406H7.18399Z" fill="black"/>
</svg>
